<svg width="181" height="32" viewBox="0 0 181 32" fill="none" xmlns="http://www.w3.org/2000/svg">
<path d="M15.456 19.712H7.072L5.728 23.68H0L8.128 1.216H14.464L22.592 23.68H16.8L15.456 19.712ZM14.08 15.552L11.264 7.264L8.48 15.552H14.08ZM24.1377 12.416C24.1377 10.1973 24.6178 8.224 25.5778 6.496C26.5378 4.7467 27.8711 3.392 29.5778 2.432C31.3058 1.4507 33.2578 0.96 35.4338 0.96C38.1004 0.96 40.3831 1.664 42.2818 3.072C44.1804 4.48 45.4498 6.4 46.0898 8.832H40.0738C39.6044 7.9147 38.9644 7.2213 38.1538 6.752C37.3431 6.2613 36.4151 6.016 35.3698 6.016C33.6844 6.016 32.3191 6.6027 31.2738 7.776C30.2284 8.928 29.7058 10.4747 29.7058 12.416C29.7058 14.3573 30.2284 15.9147 31.2738 17.088C32.3191 18.2613 33.6844 18.848 35.3698 18.848C36.4151 18.848 37.3431 18.6027 38.1538 18.112C38.9644 17.6213 39.6044 16.9173 40.0738 16H46.0898C45.4498 18.432 44.1804 20.352 42.2818 21.76C40.3831 23.1467 38.1004 23.84 35.4338 23.84C33.2578 23.84 31.3058 23.36 29.5778 22.4C27.8711 21.4187 26.5378 20.064 25.5778 18.336C24.6178 16.608 24.1377 14.6347 24.1377 12.416ZM74.8808 1.216V23.68H69.4088V10.208L64.3848 23.68H59.9688L54.9128 10.176V23.68H49.4408V1.216H55.9047L62.2088 16.768L68.4488 1.216H74.8808ZM85.422 12.512C85.422 10.336 85.9233 8.384 86.926 6.656C87.95 4.928 89.326 3.584 91.054 2.624C92.8033 1.6427 94.7127 1.152 96.782 1.152C99.15 1.152 101.251 1.7387 103.086 2.912C104.942 4.064 106.286 5.7067 107.118 7.84H102.734C102.158 6.7307 101.358 5.8987 100.334 5.344C99.31 4.768 98.126 4.48 96.782 4.48C95.31 4.48 93.998 4.8107 92.846 5.472C91.694 6.1333 90.7873 7.072 90.126 8.288C89.486 9.504 89.166 10.912 89.166 12.512C89.166 14.112 89.486 15.5307 90.126 16.768C90.7873 17.984 91.694 18.9227 92.846 19.584C93.998 20.2453 95.31 20.576 96.782 20.576C98.126 20.576 99.31 20.2987 100.334 19.744C101.358 19.168 102.158 18.3253 102.734 17.216H107.118C106.286 19.3493 104.942 20.992 103.086 22.144C101.251 23.296 99.15 23.872 96.782 23.872C94.6913 23.872 92.782 23.392 91.054 22.432C89.326 21.4507 87.95 20.096 86.926 18.368C85.9233 16.64 85.422 14.688 85.422 12.512ZM113.372 6.048L118.332 19.488L123.484 6.048H127.26L116.444 31.968H112.668L116.252 23.392L109.308 6.048H113.372ZM133.661 8.672C134.28 7.8187 135.122 7.1253 136.189 6.592C137.277 6.0373 138.482 5.76 139.805 5.76C141.362 5.76 142.77 6.1333 144.029 6.88C145.288 7.6267 146.28 8.6933 147.005 10.08C147.73 11.4453 148.093 13.0133 148.093 14.784C148.093 16.5547 147.73 18.144 147.005 19.552C146.28 20.9387 145.277 22.0267 143.997 22.816C142.738 23.584 141.341 23.968 139.805 23.968C138.44 23.968 137.224 23.7013 136.157 23.168C135.112 22.6347 134.28 21.952 133.661 21.12V23.68H130.013V0H133.661V8.672ZM144.381 14.784C144.381 13.568 144.125 12.5227 143.613 11.648C143.122 10.752 142.461 10.08 141.629 9.632C140.818 9.1627 139.944 8.928 139.005 8.928C138.088 8.928 137.213 9.1627 136.381 9.632C135.57 10.1013 134.909 10.784 134.397 11.68C133.906 12.576 133.661 13.632 133.661 14.848C133.661 16.064 133.906 17.1307 134.397 18.048C134.909 18.944 135.57 19.6267 136.381 20.096C137.213 20.5653 138.088 20.8 139.005 20.8C139.944 20.8 140.818 20.5653 141.629 20.096C142.461 19.6053 143.122 18.9013 143.613 17.984C144.125 17.0667 144.381 16 144.381 14.784ZM167.861 14.368C167.861 14.9867 167.818 15.5627 167.733 16.096H154.229C154.335 17.568 154.858 18.7413 155.797 19.616C156.735 20.4693 157.898 20.896 159.285 20.896C161.247 20.896 162.634 20.0747 163.445 18.432H167.38C166.847 20.0533 165.877 21.3867 164.469 22.432C163.082 23.456 161.354 23.968 159.285 23.968C157.599 23.968 156.085 23.5947 154.741 22.848C153.418 22.08 152.373 21.0133 151.605 19.648C150.858 18.2613 150.485 16.6613 150.485 14.848C150.485 13.0347 150.847 11.4453 151.573 10.08C152.319 8.6933 153.354 7.6267 154.677 6.88C156.021 6.1333 157.557 5.76 159.285 5.76C160.949 5.76 162.431 6.1227 163.733 6.848C165.034 7.5733 166.047 8.5867 166.773 9.888C167.498 11.1893 167.861 12.6827 167.861 14.368ZM164.053 13.472C164.031 12.0427 163.551 10.912 162.613 10.08C161.695 9.248 160.533 8.832 159.125 8.832C157.845 8.832 156.746 9.248 155.829 10.08C154.933 10.912 154.41 12.0427 154.261 13.472H164.053ZM175.099 9.12C175.632 8.0533 176.336 7.232 177.211 6.656C178.107 6.0587 179.163 5.76 180.379 5.76V9.536H179.451C178.021 9.536 176.933 9.8987 176.187 10.624C175.461 11.3493 175.099 12.608 175.099 14.4V23.68H171.451V6.048H175.099V9.12Z" fill="#FFBA44"/>
</svg>
