<svg width="225" height="24" viewBox="0 0 225 24" fill="none" xmlns="http://www.w3.org/2000/svg">
<path d="M15.456 19.712H7.072L5.728 23.68H0L8.128 1.216H14.464L22.592 23.68H16.8L15.456 19.712ZM14.08 15.552L11.264 7.264L8.48 15.552H14.08ZM24.1377 12.416C24.1377 10.1973 24.6178 8.224 25.5778 6.496C26.5378 4.74667 27.8711 3.392 29.5778 2.432C31.3058 1.45067 33.2578 0.96 35.4338 0.96C38.1004 0.96 40.3831 1.664 42.2818 3.072C44.1804 4.48 45.4498 6.4 46.0898 8.832H40.0738C39.6044 7.91467 38.9644 7.22133 38.1538 6.752C37.3431 6.26133 36.4151 6.016 35.3698 6.016C33.6844 6.016 32.3191 6.60267 31.2738 7.776C30.2284 8.928 29.7058 10.4747 29.7058 12.416C29.7058 14.3573 30.2284 15.9147 31.2738 17.088C32.3191 18.2613 33.6844 18.848 35.3698 18.848C36.4151 18.848 37.3431 18.6027 38.1538 18.112C38.9644 17.6213 39.6044 16.9173 40.0738 16H46.0898C45.4498 18.432 44.1804 20.352 42.2818 21.76C40.3831 23.1467 38.1004 23.84 35.4338 23.84C33.2578 23.84 31.3058 23.36 29.5778 22.4C27.8711 21.4187 26.5378 20.064 25.5778 18.336C24.6178 16.608 24.1377 14.6347 24.1377 12.416ZM74.8808 1.216V23.68H69.4088V10.208L64.3848 23.68H59.9688L54.9128 10.176V23.68H49.4408V1.216H55.9047L62.2088 16.768L68.4488 1.216H74.8808ZM97.174 1.44V4.288H91.254V23.68H87.606V4.288H81.654V1.44H97.174ZM117.028 14.368C117.028 14.9867 116.986 15.5627 116.9 16.096H103.396C103.503 17.568 104.026 18.7413 104.964 19.616C105.903 20.4693 107.066 20.896 108.452 20.896C110.415 20.896 111.802 20.0747 112.612 18.432H116.548C116.015 20.0533 115.044 21.3867 113.636 22.432C112.25 23.456 110.522 23.968 108.452 23.968C106.767 23.968 105.252 23.5947 103.908 22.848C102.586 22.08 101.54 21.0133 100.772 19.648C100.026 18.2613 99.652 16.6613 99.652 14.848C99.652 13.0347 100.015 11.4453 100.74 10.08C101.487 8.69333 102.522 7.62667 103.844 6.88C105.188 6.13333 106.724 5.76 108.452 5.76C110.116 5.76 111.599 6.12267 112.9 6.848C114.202 7.57333 115.215 8.58667 115.94 9.888C116.666 11.1893 117.028 12.6827 117.028 14.368ZM113.22 13.472C113.199 12.0427 112.719 10.912 111.78 10.08C110.863 9.248 109.7 8.832 108.292 8.832C107.012 8.832 105.914 9.248 104.996 10.08C104.1 10.912 103.578 12.0427 103.428 13.472H113.22ZM119.402 14.784C119.402 13.0133 119.765 11.4453 120.49 10.08C121.237 8.71467 122.24 7.65867 123.498 6.912C124.778 6.144 126.186 5.76 127.722 5.76C129.109 5.76 130.314 6.03733 131.338 6.592C132.384 7.12533 133.216 7.79733 133.834 8.608V6.048H137.514V23.68H133.834V21.056C133.216 21.888 132.373 22.5813 131.306 23.136C130.24 23.6907 129.024 23.968 127.658 23.968C126.144 23.968 124.757 23.584 123.498 22.816C122.24 22.0267 121.237 20.9387 120.49 19.552C119.765 18.144 119.402 16.5547 119.402 14.784ZM133.834 14.848C133.834 13.632 133.578 12.576 133.066 11.68C132.576 10.784 131.925 10.1013 131.114 9.632C130.304 9.16267 129.429 8.928 128.49 8.928C127.552 8.928 126.677 9.16267 125.866 9.632C125.056 10.08 124.394 10.752 123.882 11.648C123.392 12.5227 123.146 13.568 123.146 14.784C123.146 16 123.392 17.0667 123.882 17.984C124.394 18.9013 125.056 19.6053 125.866 20.096C126.698 20.5653 127.573 20.8 128.49 20.8C129.429 20.8 130.304 20.5653 131.114 20.096C131.925 19.6267 132.576 18.944 133.066 18.048C133.578 17.1307 133.834 16.064 133.834 14.848ZM141.09 14.848C141.09 13.0347 141.453 11.4453 142.178 10.08C142.925 8.69333 143.949 7.62667 145.25 6.88C146.551 6.13333 148.045 5.76 149.73 5.76C151.863 5.76 153.623 6.272 155.01 7.296C156.418 8.29867 157.367 9.7387 157.858 11.616H153.922C153.602 10.7413 153.09 10.0587 152.386 9.568C151.682 9.07733 150.797 8.832 149.73 8.832C148.237 8.832 147.042 9.36533 146.146 10.432C145.271 11.4773 144.834 12.9493 144.834 14.848C144.834 16.7467 145.271 18.2293 146.146 19.296C147.042 20.3627 148.237 20.896 149.73 20.896C151.842 20.896 153.239 19.968 153.922 18.112H157.858C157.346 19.904 156.386 21.3333 154.978 22.4C153.57 23.4453 151.821 23.968 149.73 23.968C148.045 23.968 146.551 23.5947 145.25 22.848C143.949 22.08 142.925 21.0133 142.178 19.648C141.453 18.2613 141.09 16.6613 141.09 14.848ZM170.613 5.76C171.957 5.76 173.152 6.048 174.197 6.624C175.264 7.2 176.096 8.05333 176.693 9.184C177.312 10.3147 177.621 11.68 177.621 13.28V23.68H174.005V13.824C174.005 12.2453 173.611 11.04 172.821 10.208C172.032 9.35467 170.955 8.928 169.589 8.928C168.224 8.928 167.136 9.35467 166.325 10.208C165.536 11.04 165.141 12.2453 165.141 13.824V23.68H161.493V0H165.141V8.096C165.76 7.34933 166.539 6.77333 167.477 6.368C168.437 5.96267 169.483 5.76 170.613 5.76ZM195.516 20.896H203.036V23.68H191.868V1.44H195.516V20.896ZM219.495 19.136H210.183L208.583 23.68H204.775L212.743 1.408H216.967L224.935 23.68H221.095L219.495 19.136ZM218.503 16.288L214.855 5.824L211.175 16.288H218.503Z" fill="#242424"/>
</svg>
